<svg width="11" height="17" viewBox="0 0 11 17" fill="none" xmlns="http://www.w3.org/2000/svg">
<path d="M10.7144 8.7669C10.7568 8.73639 10.7912 8.69626 10.815 8.64982C10.8388 8.60337 10.8512 8.55194 10.8512 8.49976C10.8512 8.44758 10.8388 8.39615 10.815 8.3497C10.7912 8.30326 10.7568 8.26313 10.7144 8.23262L0.525993 0.860509C0.306486 0.703127 4.76837e-06 0.86051 4.76837e-06 1.12972V3.07214C4.76837e-06 3.49459 0.202946 3.89633 0.546701 4.14483L6.56864 8.49769L0.546701 12.8547C0.202946 13.1032 4.76837e-06 13.5008 4.76837e-06 13.9274V15.8698C4.76837e-06 16.139 0.306486 16.2964 0.525993 16.139L10.7144 8.7669Z" fill="white"/>
</svg>
