<svg width="11" height="17" viewBox="0 0 11 17" fill="none" xmlns="http://www.w3.org/2000/svg">
<path d="M10.8632 8.76714C10.9056 8.73664 10.94 8.69651 10.9638 8.65006C10.9876 8.60362 11 8.55218 11 8.5C11 8.44782 10.9876 8.39639 10.9638 8.34995C10.94 8.3035 10.9056 8.26337 10.8632 8.23287L0.674797 0.860753C0.45529 0.703371 0.148808 0.860754 0.148808 1.12996V3.07239C0.148808 3.49484 0.351749 3.89658 0.695505 4.14507L6.71745 8.49793L0.695505 12.8549C0.351749 13.1034 0.148808 13.501 0.148808 13.9276V15.87C0.148808 16.1393 0.45529 16.2966 0.674797 16.1393L10.8632 8.76714Z" fill="white"/>
</svg>
