<svg width="197" height="80" viewBox="0 0 197 80" fill="none" xmlns="http://www.w3.org/2000/svg">
<path opacity="0.1" fill-rule="evenodd" clip-rule="evenodd" d="M6.66667 0H0V6.66667H6.66667V0ZM0 11.6667H6.66667V18.3333H0V11.6667ZM6.66667 23.3333H0V30H6.66667V23.3333ZM6.66667 33.3333H0V40H6.66667V33.3333ZM6.66667 43.3333H0V50H6.66667V43.3333ZM6.66667 53.3333H0V60H6.66667V53.3333ZM6.66667 63.3333H0V70H6.66667V63.3333ZM76.6667 73.3333H70V80H76.6667V73.3333ZM70 63.3333H76.6667V70H70V63.3333ZM70 53.3333H76.6667V60H70V53.3333ZM70 43.3333H76.6667V50H70V43.3333ZM70 33.3333H76.6667V40H70V33.3333ZM70 23.3333H76.6667V30H70V23.3333ZM76.6667 11.6667H70V18.3333H76.6667V11.6667ZM70 0H76.6667V6.66667H70V0ZM16.6667 73.3333H10V80H16.6667V73.3333ZM80 73.3333H86.6667V80H80V73.3333ZM16.6667 63.3333H10V70H16.6667V63.3333ZM0 73.33H6.66667V79.9967H0V73.33ZM86.6667 63.3333H80V70H86.6667V63.3333ZM10 53.3333H16.6667V60H10V53.3333ZM86.6667 53.3333H80V60H86.6667V53.3333ZM10 43.3333H16.6667V50H10V43.3333ZM86.6667 43.3333H80V50H86.6667V43.3333ZM10 33.3333H16.6667V40H10V33.3333ZM86.6667 33.3333H80V40H86.6667V33.3333ZM10 23.3333H16.6667V30H10V23.3333ZM16.6667 11.6667H10V18.3333H16.6667V11.6667ZM10 0H16.6667V6.66667H10V0ZM86.6667 23.3333H80V30H86.6667V23.3333ZM80 11.6667H86.6667V18.3333H80V11.6667ZM86.6667 0H80V6.66667H86.6667V0ZM20 73.3333H26.6667V80H20V73.3333ZM96.6667 73.3333H90V80H96.6667V73.3333ZM20 63.3333H26.6667V70H20V63.3333ZM96.6667 63.3333H90V70H96.6667V63.3333ZM20 53.3333H26.6667V60H20V53.3333ZM96.6667 53.3333H90V60H96.6667V53.3333ZM20 43.3333H26.6667V50H20V43.3333ZM96.6667 43.3333H90V50H96.6667V43.3333ZM20 33.3333H26.6667V40H20V33.3333ZM96.6667 33.3333H90V40H96.6667V33.3333ZM20 23.3333H26.6667V30H20V23.3333ZM26.6667 11.6667H20V18.3333H26.6667V11.6667ZM20 0H26.6667V6.66667H20V0ZM96.6667 23.3333H90V30H96.6667V23.3333ZM90 11.6667H96.6667V18.3333H90V11.6667ZM96.6667 0H90V6.66667H96.6667V0ZM30 73.3333H36.6667V80H30V73.3333ZM106.667 73.3333H100V80H106.667V73.3333ZM30 63.3333H36.6667V70H30V63.3333ZM106.667 63.3333H100V70H106.667V63.3333ZM30 53.3333H36.6667V60H30V53.3333ZM106.667 53.3333H100V60H106.667V53.3333ZM30 43.3333H36.6667V50H30V43.3333ZM106.667 43.3333H100V50H106.667V43.3333ZM30 33.3333H36.6667V40H30V33.3333ZM106.667 33.3333H100V40H106.667V33.3333ZM30 23.3333H36.6667V30H30V23.3333ZM36.6667 11.6667H30V18.3333H36.6667V11.6667ZM30 0H36.6667V6.66667H30V0ZM106.667 23.3333H100V30H106.667V23.3333ZM100 11.6667H106.667V18.3333H100V11.6667ZM106.667 0H100V6.66667H106.667V0ZM40 73.3333H46.6667V80H40V73.3333ZM116.667 73.3333H110V80H116.667V73.3333ZM40 63.3333H46.6667V70H40V63.3333ZM116.667 63.3333H110V70H116.667V63.3333ZM40 53.3333H46.6667V60H40V53.3333ZM116.667 53.3333H110V60H116.667V53.3333ZM40 43.3333H46.6667V50H40V43.3333ZM116.667 43.3333H110V50H116.667V43.3333ZM40 33.3333H46.6667V40H40V33.3333ZM116.667 33.3333H110V40H116.667V33.3333ZM40 23.3333H46.6667V30H40V23.3333ZM46.6667 11.6667H40V18.3333H46.6667V11.6667ZM40 0H46.6667V6.66667H40V0ZM116.667 23.3333H110V30H116.667V23.3333ZM110 11.6667H116.667V18.3333H110V11.6667ZM116.667 0H110V6.66667H116.667V0ZM50 73.3333H56.6667V80H50V73.3333ZM126.667 73.3333H120V80H126.667V73.3333ZM50 63.3333H56.6667V70H50V63.3333ZM126.667 63.3333H120V70H126.667V63.3333ZM50 53.3333H56.6667V60H50V53.3333ZM126.667 53.3333H120V60H126.667V53.3333ZM50 43.3333H56.6667V50H50V43.3333ZM126.667 43.3333H120V50H126.667V43.3333ZM50 33.3333H56.6667V40H50V33.3333ZM126.667 33.3333H120V40H126.667V33.3333ZM50 23.3333H56.6667V30H50V23.3333ZM56.6667 11.6667H50V18.3333H56.6667V11.6667ZM50 0H56.6667V6.66667H50V0ZM126.667 23.3333H120V30H126.667V23.3333ZM120 11.6667H126.667V18.3333H120V11.6667ZM126.667 0H120V6.66667H126.667V0ZM60 73.3333H66.6667V80H60V73.3333ZM136.667 73.3333H130V80H136.667V73.3333ZM140 73.3333H146.667V80H140V73.3333ZM156.667 73.3333H150V80H156.667V73.3333ZM160 73.3333H166.667V80H160V73.3333ZM176.667 73.3333H170V80H176.667V73.3333ZM180 73.3333H186.667V80H180V73.3333ZM196.667 73.3333H190V80H196.667V73.3333ZM60 63.3333H66.6667V70H60V63.3333ZM136.667 63.3333H130V70H136.667V63.3333ZM140 63.3333H146.667V70H140V63.3333ZM156.667 63.3333H150V70H156.667V63.3333ZM160 63.3333H166.667V70H160V63.3333ZM176.667 63.3333H170V70H176.667V63.3333ZM180 63.3333H186.667V70H180V63.3333ZM196.667 63.3333H190V70H196.667V63.3333ZM60 53.3333H66.6667V60H60V53.3333ZM136.667 53.3333H130V60H136.667V53.3333ZM140 53.3333H146.667V60H140V53.3333ZM156.667 53.3333H150V60H156.667V53.3333ZM160 53.3333H166.667V60H160V53.3333ZM176.667 53.3333H170V60H176.667V53.3333ZM180 53.3333H186.667V60H180V53.3333ZM196.667 53.3333H190V60H196.667V53.3333ZM60 43.3333H66.6667V50H60V43.3333ZM136.667 43.3333H130V50H136.667V43.3333ZM140 43.3333H146.667V50H140V43.3333ZM156.667 43.3333H150V50H156.667V43.3333ZM160 43.3333H166.667V50H160V43.3333ZM176.667 43.3333H170V50H176.667V43.3333ZM180 43.3333H186.667V50H180V43.3333ZM196.667 43.3333H190V50H196.667V43.3333ZM60 33.3333H66.6667V40H60V33.3333ZM136.667 33.3333H130V40H136.667V33.3333ZM140 33.3333H146.667V40H140V33.3333ZM156.667 33.3333H150V40H156.667V33.3333ZM160 33.3333H166.667V40H160V33.3333ZM176.667 33.3333H170V40H176.667V33.3333ZM180 33.3333H186.667V40H180V33.3333ZM196.667 33.3333H190V40H196.667V33.3333ZM60 23.3333H66.6667V30H60V23.3333ZM66.6667 11.6667H60V18.3333H66.6667V11.6667ZM60 0H66.6667V6.66667H60V0ZM136.667 23.3333H130V30H136.667V23.3333ZM140 23.3333H146.667V30H140V23.3333ZM156.667 23.3333H150V30H156.667V23.3333ZM160 23.3333H166.667V30H160V23.3333ZM176.667 23.3333H170V30H176.667V23.3333ZM180 23.3333H186.667V30H180V23.3333ZM196.667 23.3333H190V30H196.667V23.3333Z" fill="url(#paint0_linear_354_683)"/>
<defs>
<linearGradient id="paint0_linear_354_683" x1="5.75009e-06" y1="80" x2="47.5" y2="1.8751e-06" gradientUnits="userSpaceOnUse">
<stop stop-color="#F8FFF0"/>
<stop offset="1" stop-color="#F5FFE8" stop-opacity="0"/>
</linearGradient>
</defs>
</svg>
