<svg width="224" height="171" viewBox="0 0 224 171" fill="none" xmlns="http://www.w3.org/2000/svg">
<g filter="url(#filter0_i_904_3060)">
<path d="M212 30C212 25.5817 208.418 22 204 22H20C15.5817 22 12 25.5817 12 30V122C12 126.418 15.5817 130 20 130H82.9358C84.1311 130 85.2637 130.535 86.0235 131.457L105.825 155.501C109.025 159.387 114.975 159.387 118.175 155.501L137.976 131.457C138.736 130.535 139.869 130 141.064 130H204C208.418 130 212 126.418 212 122V30Z" fill="#373743"/>
</g>
<path d="M204 16H20C12.268 16 6 22.268 6 30V122C6 129.732 12.268 136 20 136H81.992L101.193 159.316C106.793 166.116 117.207 166.116 122.807 159.316L142.008 136H204C211.732 136 218 129.732 218 122V30C218 22.268 211.732 16 204 16Z" stroke="#4D4D5F" stroke-width="12"/>
<g opacity="0.6" filter="url(#filter1_f_904_3060)">
<path d="M204 21H20C15.0294 21 11 25.0294 11 30V122C11 126.971 15.0294 131 20 131H82.9358C83.8323 131 84.6817 131.401 85.2516 132.093L105.053 156.137C108.653 160.508 115.347 160.508 118.947 156.137L138.748 132.093C139.318 131.401 140.168 131 141.064 131H204C208.971 131 213 126.971 213 122V30C213 25.0294 208.971 21 204 21Z" stroke="url(#paint0_linear_904_3060)" stroke-width="2"/>
</g>
<g filter="url(#filter2_di_904_3060)">
<path d="M193.753 28.7733L167.979 3L102.729 74.9821L69.4073 38.2939L47 60.7012L102.729 109.698L193.753 28.7733Z" fill="url(#paint1_linear_904_3060)"/>
</g>
<defs>
<filter id="filter0_i_904_3060" x="0" y="10" width="242" height="178.416" filterUnits="userSpaceOnUse" color-interpolation-filters="sRGB">
<feFlood flood-opacity="0" result="BackgroundImageFix"/>
<feBlend mode="normal" in="SourceGraphic" in2="BackgroundImageFix" result="shape"/>
<feColorMatrix in="SourceAlpha" type="matrix" values="0 0 0 0 0 0 0 0 0 0 0 0 0 0 0 0 0 0 127 0" result="hardAlpha"/>
<feOffset dx="30" dy="27"/>
<feGaussianBlur stdDeviation="9"/>
<feComposite in2="hardAlpha" operator="arithmetic" k2="-1" k3="1"/>
<feColorMatrix type="matrix" values="0 0 0 0 0 0 0 0 0 0 0 0 0 0 0 0 0 0 0.6 0"/>
<feBlend mode="normal" in2="shape" result="effect1_innerShadow_904_3060"/>
</filter>
<filter id="filter1_f_904_3060" x="9.5" y="19.5" width="205" height="141.416" filterUnits="userSpaceOnUse" color-interpolation-filters="sRGB">
<feFlood flood-opacity="0" result="BackgroundImageFix"/>
<feBlend mode="normal" in="SourceGraphic" in2="BackgroundImageFix" result="shape"/>
<feGaussianBlur stdDeviation="0.25" result="effect1_foregroundBlur_904_3060"/>
</filter>
<filter id="filter2_di_904_3060" x="39.3" y="0.299999" width="182.153" height="142.099" filterUnits="userSpaceOnUse" color-interpolation-filters="sRGB">
<feFlood flood-opacity="0" result="BackgroundImageFix"/>
<feColorMatrix in="SourceAlpha" type="matrix" values="0 0 0 0 0 0 0 0 0 0 0 0 0 0 0 0 0 0 127 0" result="hardAlpha"/>
<feOffset dx="10" dy="15"/>
<feGaussianBlur stdDeviation="8.85"/>
<feComposite in2="hardAlpha" operator="out"/>
<feColorMatrix type="matrix" values="0 0 0 0 0 0 0 0 0 0 0 0 0 0 0 0 0 0 0.25 0"/>
<feBlend mode="normal" in2="BackgroundImageFix" result="effect1_dropShadow_904_3060"/>
<feBlend mode="normal" in="SourceGraphic" in2="effect1_dropShadow_904_3060" result="shape"/>
<feColorMatrix in="SourceAlpha" type="matrix" values="0 0 0 0 0 0 0 0 0 0 0 0 0 0 0 0 0 0 127 0" result="hardAlpha"/>
<feOffset dx="2" dy="2"/>
<feGaussianBlur stdDeviation="1"/>
<feComposite in2="hardAlpha" operator="arithmetic" k2="-1" k3="1"/>
<feColorMatrix type="matrix" values="0 0 0 0 1 0 0 0 0 1 0 0 0 0 1 0 0 0 0.6 0"/>
<feBlend mode="normal" in2="shape" result="effect2_innerShadow_904_3060"/>
</filter>
<linearGradient id="paint0_linear_904_3060" x1="15.5" y1="28.5" x2="196.5" y2="124.5" gradientUnits="userSpaceOnUse">
<stop stop-color="#020804" stop-opacity="0"/>
<stop offset="1"/>
</linearGradient>
<linearGradient id="paint1_linear_904_3060" x1="187.697" y1="14.4426" x2="46.3235" y2="66.6162" gradientUnits="userSpaceOnUse">
<stop stop-color="#0000FF"/>
<stop offset="1" stop-color="#6F5FFF"/>
</linearGradient>
</defs>
</svg>
