<svg width="24" height="24" viewBox="0 0 24 24" fill="none" xmlns="http://www.w3.org/2000/svg">
<path d="M7.6 12C9.72781 12 11.45 10.2107 11.45 8C11.45 5.78929 9.72781 4 7.6 4C5.47219 4 3.75 5.78929 3.75 8C3.75 10.2107 5.47219 12 7.6 12ZM10.24 13.1429H9.95469C9.23969 13.5 8.44563 13.7143 7.6 13.7143C6.75438 13.7143 5.96375 13.5 5.24531 13.1429H4.96C2.77375 13.1429 1 14.9857 1 17.2571V18.2857C1 19.2321 1.73906 20 2.65 20H12.55C13.4609 20 14.2 19.2321 14.2 18.2857V17.2571C14.2 14.9857 12.4262 13.1429 10.24 13.1429ZM17.5 12C19.3219 12 20.8 10.4643 20.8 8.57143C20.8 6.67857 19.3219 5.14286 17.5 5.14286C15.6781 5.14286 14.2 6.67857 14.2 8.57143C14.2 10.4643 15.6781 12 17.5 12ZM19.15 13.1429H19.0194C18.5416 13.3143 18.0363 13.4286 17.5 13.4286C16.9638 13.4286 16.4584 13.3143 15.9806 13.1429H15.85C15.1488 13.1429 14.5025 13.3536 13.9353 13.6929C14.7741 14.6321 15.3 15.8786 15.3 17.2571V18.6286C15.3 18.7071 15.2828 18.7821 15.2794 18.8571H21.35C22.2609 18.8571 23 18.0893 23 17.1429C23 14.9321 21.2778 13.1429 19.15 13.1429Z" fill="#D4D3D3"/>
</svg>
