<svg width="32" height="32" viewBox="0 0 32 32" fill="none" xmlns="http://www.w3.org/2000/svg">
<path d="M20.9797 12.9469C23.2001 12.9469 25.0058 11.1412 25.0058 8.92081C25.0058 6.7004 23.2001 4.89795 20.9797 4.89795C18.7593 4.89795 16.9536 6.70366 16.9536 8.92407C16.9536 11.1445 18.7593 12.9502 20.9797 12.9502V12.9469ZM20.9797 6.3804C22.3805 6.3804 23.5233 7.51999 23.5233 8.92407C23.5233 10.3282 22.3838 11.4677 20.9797 11.4677C19.5756 11.4677 18.436 10.3282 18.436 8.92407C18.436 7.51999 19.5756 6.3804 20.9797 6.3804Z" fill="#A9A7A7"/>
<path d="M23.027 14.0376H21.0842C21.0156 14.0278 20.947 14.0278 20.8817 14.0376H18.9356C15.8564 14.0376 13.3519 16.542 13.3519 19.6212V26.3445C13.3519 26.7527 13.685 27.0857 14.0932 27.0857H21.796C25.5544 27.0857 28.6107 24.0294 28.6107 20.271V19.6212C28.6107 16.542 26.1062 14.0376 23.027 14.0376ZM27.1283 20.271C27.1283 23.2131 24.7348 25.6033 21.796 25.6033H14.8344V19.618C14.8344 17.3551 16.6727 15.5167 18.9356 15.5167H20.9764C20.9764 15.5167 20.9764 15.5167 20.9829 15.5167H23.0303C25.2932 15.5167 27.1315 17.3551 27.1315 19.618V20.2678L27.1283 20.271Z" fill="#A9A7A7"/>
<path d="M10.8931 14.031H8.84579C5.76987 14.031 3.26538 16.5355 3.26538 19.6147V23.5984C3.26538 24.0065 3.59844 24.3396 4.00661 24.3396H10.8931C11.3013 24.3396 11.6344 24.0065 11.6344 23.5984V14.7722C11.6344 14.3641 11.3013 14.031 10.8931 14.031ZM10.1519 22.8571H4.74783V19.6147C4.74783 17.3518 6.5862 15.5135 8.84905 15.5135H10.1552V22.8571H10.1519Z" fill="#A9A7A7"/>
<path d="M16.1176 8.92407C16.1176 6.70366 14.3119 4.89795 12.0915 4.89795C9.87108 4.89795 8.06537 6.70366 8.06537 8.92407C8.06537 11.1445 9.87108 12.9502 12.0915 12.9502C14.3119 12.9502 16.1176 11.1445 16.1176 8.92407ZM12.0915 11.4677C10.6907 11.4677 9.54782 10.3282 9.54782 8.92407C9.54782 7.51999 10.6874 6.3804 12.0915 6.3804C13.4956 6.3804 14.6352 7.51999 14.6352 8.92407C14.6352 10.3282 13.4956 11.4677 12.0915 11.4677Z" fill="#A9A7A7"/>
</svg>
