<svg width="32" height="32" viewBox="0 0 32 32" fill="none" xmlns="http://www.w3.org/2000/svg">
<path d="M25.7034 7.82039H16.7402V4.57141H15.124V7.82039H6.1608C3.65575 7.82039 1.61615 9.8808 1.61615 12.4114V22.1877C1.61615 24.7183 3.65575 26.7788 6.1608 26.7788H25.7034C28.2117 26.7788 30.2481 24.7183 30.2481 22.1877V12.4114C30.2481 9.8808 28.2085 7.82039 25.7034 7.82039ZM28.6319 22.191C28.6319 23.8237 27.3164 25.1494 25.7034 25.1494H6.1608C4.54463 25.1494 3.23231 23.8204 3.23231 22.191V12.4147C3.23231 10.782 4.54787 9.45631 6.1608 9.45631H15.124V12.3494H16.7402V9.45631H25.7034C27.3196 9.45631 28.6319 10.7853 28.6319 12.4147V22.191Z" fill="#A9A7A7"/>
<path d="M21.7104 20.8713C23.4672 20.5832 24.6602 18.911 24.375 17.1363C24.0899 15.3615 22.4345 14.1563 20.6777 14.4444C18.9209 14.7325 17.7279 16.4047 18.0131 18.1795C18.2982 19.9542 19.9536 21.1594 21.7104 20.8713Z" fill="#A9A7A7"/>
<path d="M12.063 14.2302L10.4565 15.8531L8.85327 14.2302L7.0658 16.0359L8.66903 17.6588L7.0658 19.2816L8.85327 21.0873L10.4565 19.4645L12.063 21.0873L13.8504 19.2816L12.244 17.6588L13.8504 16.0359L12.063 14.2302Z" fill="#A9A7A7"/>
</svg>
