<svg width="32" height="32" viewBox="0 0 32 32" fill="none" xmlns="http://www.w3.org/2000/svg">
<g clip-path="url(#clip0_1_1588)">
<path d="M16 28.5C22.9036 28.5 28.5 22.9035 28.5 16C28.5 9.09644 22.9036 3.50001 16 3.50001C9.09647 3.50001 3.50003 9.09644 3.50003 16C3.50003 22.9035 9.09647 28.5 16 28.5Z" fill="#A9A7A7"/>
<path d="M17.7294 21.7456H14.2707C13.6437 21.7456 13.0631 21.4615 12.6786 20.9663C12.2941 20.471 12.1623 19.8385 12.3179 19.2309L12.7857 17.4012C12.0139 16.531 11.6211 15.377 11.7175 14.1948C11.8881 12.1012 13.5976 10.4123 15.6941 10.2659C16.9004 10.1818 18.0496 10.5877 18.9302 11.4095C19.7988 12.2194 20.2968 13.3651 20.2968 14.5524C20.2968 15.6159 19.9091 16.6222 19.2143 17.4024L19.6822 19.2313C19.8373 19.8389 19.706 20.4714 19.3214 20.9671C18.9369 21.4623 18.3564 21.7464 17.7294 21.7464V21.7456ZM14.4695 19.5754H17.5306L16.7822 16.6484L17.3278 16.2107C17.8357 15.8036 18.127 15.1988 18.127 14.5512C18.127 13.9548 17.8865 13.4024 17.4504 12.9952C17.0143 12.5885 16.4441 12.3877 15.8453 12.4298C14.8095 12.502 13.9651 13.3365 13.8806 14.3706C13.8226 15.079 14.1187 15.7671 14.6722 16.2111L15.2179 16.6488L14.4695 19.5758V19.5754Z" fill="#292929"/>
</g>
<defs>
<clipPath id="clip0_1_1588">
<rect width="25" height="25" fill="white" transform="translate(3.5 3.5)"/>
</clipPath>
</defs>
</svg>
