<svg width="32" height="32" viewBox="0 0 32 32" fill="none" xmlns="http://www.w3.org/2000/svg">
<g clip-path="url(#clip0_1_1603)">
<path d="M16 28.5C22.9036 28.5 28.5 22.9035 28.5 16C28.5 9.09644 22.9036 3.50001 16 3.50001C9.09647 3.50001 3.50003 9.09644 3.50003 16C3.50003 22.9035 9.09647 28.5 16 28.5Z" fill="url(#paint0_linear_1_1603)"/>
<path d="M17.7294 21.7456H14.2706C13.6436 21.7456 13.0631 21.4615 12.6786 20.9663C12.294 20.471 12.1623 19.8385 12.3179 19.2309L12.7857 17.4012C12.0139 16.5309 11.621 15.377 11.7175 14.1948C11.8881 12.1012 13.5976 10.4123 15.694 10.2659C16.9004 10.1817 18.0496 10.5877 18.9301 11.4095C19.7988 12.2194 20.2968 13.3651 20.2968 14.5524C20.2968 15.6159 19.9091 16.6222 19.2143 17.4024L19.6821 19.2313C19.8373 19.8389 19.7059 20.4714 19.3214 20.967C18.9369 21.4623 18.3563 21.7464 17.7294 21.7464V21.7456ZM14.4694 19.5754H17.5305L16.7821 16.6484L17.3278 16.2107C17.8357 15.8036 18.127 15.1988 18.127 14.5512C18.127 13.9548 17.8865 13.4024 17.4504 12.9952C17.0143 12.5885 16.444 12.3877 15.8452 12.4298C14.8095 12.502 13.9651 13.3365 13.8805 14.3706C13.8226 15.079 14.1186 15.7671 14.6722 16.2111L15.2178 16.6488L14.4694 19.5758V19.5754Z" fill="black"/>
</g>
<defs>
<linearGradient id="paint0_linear_1_1603" x1="25.854" y1="5.75993" x2="8.04368" y2="24.2686" gradientUnits="userSpaceOnUse">
<stop offset="0.06" stop-color="#0179EC"/>
<stop offset="0.5" stop-color="#01FFDA"/>
<stop offset="1" stop-color="#00C646"/>
</linearGradient>
<clipPath id="clip0_1_1603">
<rect width="25" height="25" fill="white" transform="translate(3.5 3.5)"/>
</clipPath>
</defs>
</svg>
