<svg width="224" height="175" viewBox="0 0 224 175" fill="none" xmlns="http://www.w3.org/2000/svg">
<g filter="url(#filter0_i_480_1868)">
<path d="M212 34C212 29.5817 208.418 26 204 26H20C15.5817 26 12 29.5817 12 34V126C12 130.418 15.5817 134 20 134H82.9358C84.1311 134 85.2637 134.535 86.0235 135.457L105.825 159.501C109.025 163.387 114.975 163.387 118.175 159.501L137.976 135.457C138.736 134.535 139.869 134 141.064 134H204C208.418 134 212 130.418 212 126V34Z" fill="#373743"/>
</g>
<path d="M218 34C218 26.268 211.732 20 204 20H20C12.268 20 6 26.268 6 34V126C6 133.732 12.268 140 20 140H81.992L101.193 163.315C106.793 170.116 117.207 170.116 122.807 163.315L142.008 140H204C211.732 140 218 133.732 218 126V34Z" stroke="#4D4D5F" stroke-width="12"/>
<g opacity="0.6" filter="url(#filter1_f_480_1868)">
<path d="M213 34C213 29.0294 208.971 25 204 25H20C15.0294 25 11 29.0294 11 34V126C11 130.971 15.0294 135 20 135H82.9358C83.8323 135 84.6817 135.401 85.2516 136.093L105.053 160.137C108.653 164.508 115.347 164.508 118.947 160.137L138.748 136.093C139.318 135.401 140.168 135 141.064 135H204C208.971 135 213 130.971 213 126V34Z" stroke="url(#paint0_linear_480_1868)" stroke-width="2"/>
</g>
<g filter="url(#filter2_di_480_1868)">
<path fill-rule="evenodd" clip-rule="evenodd" d="M159.98 3.88188C158.397 2.29906 155.823 2.32315 154.27 3.93532L110.974 48.8844L66.2241 5.77982C64.6541 4.26749 62.1621 4.29082 60.6207 5.83228L46.5716 19.8813C45.0302 21.4228 45.0068 23.9147 46.5192 25.4848L90.0162 70.6417L61.9861 99.7414C60.4738 101.311 60.4971 103.803 62.0386 105.345L76.0877 119.394C77.6291 120.935 80.121 120.959 81.6911 119.446L110.395 91.7978L138.804 121.291C140.356 122.903 142.93 122.927 144.513 121.344L162.084 103.773C163.666 102.191 163.642 99.6171 162.03 98.0642L132.96 70.0623L177.497 27.162C179.109 25.609 179.133 23.0355 177.551 21.4526L159.98 3.88188Z" fill="url(#paint1_linear_480_1868)"/>
</g>
<defs>
<filter id="filter0_i_480_1868" x="0" y="14" width="242" height="178.416" filterUnits="userSpaceOnUse" color-interpolation-filters="sRGB">
<feFlood flood-opacity="0" result="BackgroundImageFix"/>
<feBlend mode="normal" in="SourceGraphic" in2="BackgroundImageFix" result="shape"/>
<feColorMatrix in="SourceAlpha" type="matrix" values="0 0 0 0 0 0 0 0 0 0 0 0 0 0 0 0 0 0 127 0" result="hardAlpha"/>
<feOffset dx="30" dy="27"/>
<feGaussianBlur stdDeviation="9"/>
<feComposite in2="hardAlpha" operator="arithmetic" k2="-1" k3="1"/>
<feColorMatrix type="matrix" values="0 0 0 0 0 0 0 0 0 0 0 0 0 0 0 0 0 0 0.6 0"/>
<feBlend mode="normal" in2="shape" result="effect1_innerShadow_480_1868"/>
</filter>
<filter id="filter1_f_480_1868" x="9.5" y="23.5" width="205" height="141.416" filterUnits="userSpaceOnUse" color-interpolation-filters="sRGB">
<feFlood flood-opacity="0" result="BackgroundImageFix"/>
<feBlend mode="normal" in="SourceGraphic" in2="BackgroundImageFix" result="shape"/>
<feGaussianBlur stdDeviation="0.25" result="effect1_foregroundBlur_480_1868"/>
</filter>
<filter id="filter2_di_480_1868" x="37.7" y="0.0104485" width="168.722" height="155.205" filterUnits="userSpaceOnUse" color-interpolation-filters="sRGB">
<feFlood flood-opacity="0" result="BackgroundImageFix"/>
<feColorMatrix in="SourceAlpha" type="matrix" values="0 0 0 0 0 0 0 0 0 0 0 0 0 0 0 0 0 0 127 0" result="hardAlpha"/>
<feOffset dx="10" dy="15"/>
<feGaussianBlur stdDeviation="8.85"/>
<feComposite in2="hardAlpha" operator="out"/>
<feColorMatrix type="matrix" values="0 0 0 0 0 0 0 0 0 0 0 0 0 0 0 0 0 0 0.25 0"/>
<feBlend mode="normal" in2="BackgroundImageFix" result="effect1_dropShadow_480_1868"/>
<feBlend mode="normal" in="SourceGraphic" in2="effect1_dropShadow_480_1868" result="shape"/>
<feColorMatrix in="SourceAlpha" type="matrix" values="0 0 0 0 0 0 0 0 0 0 0 0 0 0 0 0 0 0 127 0" result="hardAlpha"/>
<feOffset dx="2" dy="2"/>
<feGaussianBlur stdDeviation="1"/>
<feComposite in2="hardAlpha" operator="arithmetic" k2="-1" k3="1"/>
<feColorMatrix type="matrix" values="0 0 0 0 1 0 0 0 0 1 0 0 0 0 1 0 0 0 0.6 0"/>
<feBlend mode="normal" in2="shape" result="effect2_innerShadow_480_1868"/>
</filter>
<linearGradient id="paint0_linear_480_1868" x1="15.5" y1="32.5" x2="196.5" y2="128.5" gradientUnits="userSpaceOnUse">
<stop stop-color="#020804" stop-opacity="0"/>
<stop offset="1"/>
</linearGradient>
<linearGradient id="paint1_linear_480_1868" x1="137.325" y1="117.148" x2="155.712" y2="96.9237" gradientUnits="userSpaceOnUse">
<stop stop-color="#E36C41"/>
<stop offset="1" stop-color="#FF5F5F"/>
</linearGradient>
</defs>
</svg>
