<svg width="33" height="32" viewBox="0 0 33 32" fill="none" xmlns="http://www.w3.org/2000/svg">
<path d="M12.3074 4.57141H3.76532V6.40325H12.3074V4.57141Z" fill="#A9A7A7"/>
<path d="M27.256 8.08487H6.32538V9.91671H8.34987V21.871H29.0878V8.08487H27.256ZM27.256 20.0392H10.1817V9.91671H27.2527V20.0392H27.256Z" fill="#A9A7A7"/>
<path d="M14.1911 27.3782C15.2003 27.3064 15.9601 26.4302 15.8883 25.421C15.8165 24.4119 14.9402 23.652 13.9311 23.7238C12.922 23.7956 12.1621 24.6719 12.2339 25.681C12.3057 26.6902 13.182 27.45 14.1911 27.3782Z" fill="#A9A7A7"/>
<path d="M23.9678 27.3829C24.9795 27.3829 25.7997 26.5627 25.7997 25.551C25.7997 24.5393 24.9795 23.7192 23.9678 23.7192C22.9561 23.7192 22.136 24.5393 22.136 25.551C22.136 26.5627 22.9561 27.3829 23.9678 27.3829Z" fill="#A9A7A7"/>
</svg>
