<svg width="295" height="278" viewBox="0 0 295 278" fill="none" xmlns="http://www.w3.org/2000/svg">
<path d="M284 24C285.886 29.0962 289.904 33.1142 295 35C289.904 36.8858 285.886 40.9038 284 46C282.114 40.9038 278.096 36.8858 273 35C278.096 33.1142 282.114 29.0962 284 24Z" fill="#B950F1"/>
<path d="M235 188C236.886 193.096 240.904 197.114 246 199C240.904 200.886 236.886 204.904 235 210C233.114 204.904 229.096 200.886 224 199C229.096 197.114 233.114 193.096 235 188Z" fill="#D29CFF"/>
<path d="M96 0C97.2 3.24304 99.757 5.79997 103 7C99.757 8.20003 97.2 10.757 96 14C94.8 10.757 92.243 8.20003 89 7C92.243 5.79997 94.8 3.24304 96 0Z" fill="#D29CFF"/>
<path d="M11 55C12.8858 60.0962 16.9038 64.1142 22 66C16.9038 67.8858 12.8858 71.9038 11 77C9.11424 71.9038 5.0962 67.8858 0 66C5.0962 64.1142 9.11424 60.0962 11 55Z" fill="#B950F1"/>
<path d="M68 250C70.4001 256.486 75.5139 261.6 82 264C75.5139 266.4 70.4001 271.514 68 278C65.5999 271.514 60.4861 266.4 54 264C60.4861 261.6 65.5999 256.486 68 250Z" fill="#B950F1"/>
</svg>
