<svg width="33" height="32" viewBox="0 0 33 32" fill="none" xmlns="http://www.w3.org/2000/svg">
<path d="M27.7882 16.6857C27.7882 16.6465 27.7849 16.6074 27.7784 16.5714C27.7784 16.5551 27.7784 16.5388 27.7718 16.5192C27.7588 16.4637 27.7392 16.4114 27.7163 16.3592L25.878 12.7314L27.171 9.07103C27.1776 9.05144 27.1808 9.02858 27.1841 9.00573C27.1939 8.97307 27.2037 8.93716 27.207 8.9045C27.207 8.88165 27.207 8.86205 27.207 8.8392C27.207 8.80328 27.207 8.76736 27.2037 8.73471C27.2004 8.71185 27.1906 8.69226 27.1874 8.6694C27.1776 8.63675 27.171 8.60083 27.158 8.56818C27.158 8.56491 27.158 8.56165 27.158 8.55838C26.198 6.33471 24.0167 4.89797 21.5939 4.89797H11.2821C8.85267 4.89144 6.66818 6.32818 5.70818 8.55185C5.70818 8.55511 5.70818 8.55838 5.70818 8.56165C5.69512 8.5943 5.68532 8.63022 5.67879 8.66614C5.67226 8.68573 5.66573 8.70858 5.66246 8.72818C5.65593 8.76409 5.6592 8.80001 5.6592 8.83267C5.6592 8.85552 5.65593 8.87511 5.6592 8.89797C5.6592 8.93389 5.67226 8.96654 5.68205 8.9992C5.68858 9.02205 5.68858 9.04165 5.69512 9.0645L6.98818 12.7249L5.14654 16.3592C5.12042 16.4114 5.10083 16.4637 5.09103 16.5192C5.08777 16.5355 5.08777 16.5519 5.0845 16.5714C5.07797 16.6106 5.07471 16.6465 5.07471 16.6857C5.07471 16.7086 5.07797 16.7282 5.08124 16.751C5.08124 16.7739 5.08124 16.7967 5.08777 16.8196L7.06328 26.4359C7.13185 26.7657 7.4192 27.0008 7.75552 27.0008H25.1106C25.447 27.0008 25.7343 26.7657 25.8029 26.4359L27.7784 16.8196C27.7816 16.7967 27.7816 16.7739 27.7849 16.751C27.7849 16.7282 27.7914 16.7086 27.7914 16.6857H27.7882ZM7.35716 9.54124H25.4992L24.6045 12.0718H8.25185L7.35716 9.54124ZM11.2723 6.30532H21.5841C23.0535 6.30532 24.4053 6.9943 25.2706 8.12409H7.58573C8.45103 6.9943 9.80614 6.30532 11.2723 6.30532ZM8.18654 13.4857H24.6731L25.9335 15.9706H6.92614L8.18654 13.4857ZM21.0061 17.3845L20.2519 21.6098H12.6045L11.8502 17.3845H21.0029H21.0061ZM24.5327 25.587H8.32695L6.64205 17.3845H10.4167L11.318 22.4392C11.3767 22.7755 11.6706 23.0237 12.0135 23.0237H20.8461C21.189 23.0237 21.4829 22.7788 21.5416 22.4392L22.4429 17.3845H26.2176L24.5327 25.587Z" fill="#A9A7A7"/>
<path d="M17.1367 18.4131H15.7228V20.6368H17.1367V18.4131Z" fill="#A9A7A7"/>
</svg>
