<svg width="43" height="47" viewBox="0 0 43 47" fill="none" xmlns="http://www.w3.org/2000/svg">
<g opacity="0.4" filter="url(#filter0_d_584_5502)">
<mask id="path-1-outside-1_584_5502" maskUnits="userSpaceOnUse" x="5.63397" y="-0.366025" width="36.7846" height="39.7128" fill="black">
<rect fill="white" x="5.63397" y="-0.366025" width="36.7846" height="39.7128"/>
<path fill-rule="evenodd" clip-rule="evenodd" d="M21.9641 9.06218C23.8971 5.71413 28.1782 4.567 31.5263 6.5C34.8743 8.433 36.0215 12.7141 34.0885 16.0622L32.5885 18.6603L34.3205 19.6603C35.2771 20.2125 35.6048 21.4357 35.0526 22.3923L27.0526 36.2487C26.5003 37.2053 25.2771 37.533 24.3205 36.9808L8.73205 27.9808C7.77547 27.4285 7.44771 26.2053 8 25.2487L16 11.3923C16.5523 10.4357 17.7755 10.108 18.7321 10.6603L20.4641 11.6603L21.9641 9.06218ZM29.9904 17.1603L23.0622 13.1603L24.5622 10.5622C25.6667 8.64901 28.1131 7.99351 30.0263 9.09808C31.9394 10.2026 32.595 12.649 31.4904 14.5622L29.9904 17.1603Z"/>
</mask>
<path fill-rule="evenodd" clip-rule="evenodd" d="M21.9641 9.06218C23.8971 5.71413 28.1782 4.567 31.5263 6.5C34.8743 8.433 36.0215 12.7141 34.0885 16.0622L32.5885 18.6603L34.3205 19.6603C35.2771 20.2125 35.6048 21.4357 35.0526 22.3923L27.0526 36.2487C26.5003 37.2053 25.2771 37.533 24.3205 36.9808L8.73205 27.9808C7.77547 27.4285 7.44771 26.2053 8 25.2487L16 11.3923C16.5523 10.4357 17.7755 10.108 18.7321 10.6603L20.4641 11.6603L21.9641 9.06218ZM29.9904 17.1603L23.0622 13.1603L24.5622 10.5622C25.6667 8.64901 28.1131 7.99351 30.0263 9.09808C31.9394 10.2026 32.595 12.649 31.4904 14.5622L29.9904 17.1603Z" fill="white"/>
<path d="M21.9641 9.06218L21.0981 8.56218L21.9641 9.06218ZM34.0885 16.0622L33.2224 15.5622L34.0885 16.0622ZM32.5885 18.6603L31.7224 18.1603L31.2224 19.0263L32.0885 19.5263L32.5885 18.6603ZM34.3205 19.6603L34.8205 18.7942L34.3205 19.6603ZM35.0526 22.3923L35.9186 22.8923L35.0526 22.3923ZM27.0526 36.2487L26.1865 35.7487L27.0526 36.2487ZM24.3205 36.9808L24.8205 36.1147L24.3205 36.9808ZM8.73205 27.9808L8.23205 28.8468L8.73205 27.9808ZM20.4641 11.6603L19.9641 12.5263L20.8301 13.0263L21.3301 12.1603L20.4641 11.6603ZM23.0622 13.1603L22.1962 12.6603L21.6962 13.5263L22.5622 14.0263L23.0622 13.1603ZM29.9904 17.1603L29.4904 18.0263L30.3564 18.5263L30.8564 17.6603L29.9904 17.1603ZM24.5622 10.5622L23.6962 10.0622L24.5622 10.5622ZM32.0263 5.63397C28.1999 3.42484 23.3072 4.73584 21.0981 8.56218L22.8301 9.56218C24.487 6.69242 28.1565 5.70917 31.0263 7.36603L32.0263 5.63397ZM34.9545 16.5622C37.1636 12.7358 35.8526 7.84311 32.0263 5.63397L31.0263 7.36603C33.896 9.02288 34.8793 12.6924 33.2224 15.5622L34.9545 16.5622ZM33.4545 19.1603L34.9545 16.5622L33.2224 15.5622L31.7224 18.1603L33.4545 19.1603ZM32.0885 19.5263L33.8205 20.5263L34.8205 18.7942L33.0885 17.7942L32.0885 19.5263ZM33.8205 20.5263C34.2988 20.8024 34.4627 21.414 34.1865 21.8923L35.9186 22.8923C36.747 21.4574 36.2554 19.6227 34.8205 18.7942L33.8205 20.5263ZM34.1865 21.8923L26.1865 35.7487L27.9186 36.7487L35.9186 22.8923L34.1865 21.8923ZM26.1865 35.7487C25.9104 36.227 25.2988 36.3909 24.8205 36.1147L23.8205 37.8468C25.2554 38.6752 27.0902 38.1836 27.9186 36.7487L26.1865 35.7487ZM24.8205 36.1147L9.23205 27.1147L8.23205 28.8468L23.8205 37.8468L24.8205 36.1147ZM9.23205 27.1147C8.75376 26.8386 8.58988 26.227 8.86603 25.7487L7.13397 24.7487C6.30555 26.1836 6.79717 28.0184 8.23205 28.8468L9.23205 27.1147ZM8.86603 25.7487L16.866 11.8923L15.134 10.8923L7.13397 24.7487L8.86603 25.7487ZM16.866 11.8923C17.1422 11.414 17.7538 11.2501 18.2321 11.5263L19.2321 9.79423C17.7972 8.9658 15.9624 9.45743 15.134 10.8923L16.866 11.8923ZM18.2321 11.5263L19.9641 12.5263L20.9641 10.7942L19.2321 9.79423L18.2321 11.5263ZM21.0981 8.56218L19.5981 11.1603L21.3301 12.1603L22.8301 9.56218L21.0981 8.56218ZM22.5622 14.0263L29.4904 18.0263L30.4904 16.2942L23.5622 12.2942L22.5622 14.0263ZM23.6962 10.0622L22.1962 12.6603L23.9282 13.6603L25.4282 11.0622L23.6962 10.0622ZM30.5263 8.23205C28.1348 6.85134 25.0769 7.67071 23.6962 10.0622L25.4282 11.0622C26.2566 9.6273 28.0914 9.13567 29.5263 9.9641L30.5263 8.23205ZM32.3564 15.0622C33.7371 12.6707 32.9177 9.61276 30.5263 8.23205L29.5263 9.9641C30.9612 10.7925 31.4528 12.6273 30.6244 14.0622L32.3564 15.0622ZM30.8564 17.6603L32.3564 15.0622L30.6244 14.0622L29.1244 16.6603L30.8564 17.6603Z" fill="black" mask="url(#path-1-outside-1_584_5502)"/>
<path fill-rule="evenodd" clip-rule="evenodd" d="M16.5263 32.4808L24.3205 36.9808C25.2771 37.533 26.5003 37.2053 27.0526 36.2487L35.0526 22.3923C35.6048 21.4357 35.2771 20.2125 34.3205 19.6603L32.5885 18.6603L34.0885 16.0622C36.0214 12.7141 34.8743 8.433 31.5263 6.5L30.0263 9.09808C31.9394 10.2026 32.5949 12.649 31.4904 14.5622L29.9904 17.1603L26.5263 15.1603L16.5263 32.4808Z" fill="#D9D9D9"/>
<path fill-rule="evenodd" clip-rule="evenodd" d="M24.5263 18.624C23.0914 17.7956 21.2566 18.2872 20.4282 19.7221C19.9839 20.4916 19.9193 21.376 20.1762 22.1586L17.2942 27.1503C16.7419 28.1069 17.0697 29.3301 18.0263 29.8824C18.9829 30.4346 20.206 30.1069 20.7583 29.1503L23.6403 24.1586C24.4464 23.9898 25.1801 23.4916 25.6243 22.7221C26.4528 21.2872 25.9611 19.4525 24.5263 18.624Z" fill="#B8B8B8"/>
</g>
<defs>
<filter id="filter0_d_584_5502" x="0.731537" y="0.560547" width="41.5895" height="45.6885" filterUnits="userSpaceOnUse" color-interpolation-filters="sRGB">
<feFlood flood-opacity="0" result="BackgroundImageFix"/>
<feColorMatrix in="SourceAlpha" type="matrix" values="0 0 0 0 0 0 0 0 0 0 0 0 0 0 0 0 0 0 127 0" result="hardAlpha"/>
<feMorphology radius="6" operator="dilate" in="SourceAlpha" result="effect1_dropShadow_584_5502"/>
<feOffset dy="2"/>
<feComposite in2="hardAlpha" operator="out"/>
<feColorMatrix type="matrix" values="0 0 0 0 0 0 0 0 0 0 0 0 0 0 0 0 0 0 1 0"/>
<feBlend mode="normal" in2="BackgroundImageFix" result="effect1_dropShadow_584_5502"/>
<feBlend mode="normal" in="SourceGraphic" in2="effect1_dropShadow_584_5502" result="shape"/>
</filter>
</defs>
</svg>
