<svg width="28" height="28" viewBox="0 0 28 28" fill="none" xmlns="http://www.w3.org/2000/svg">
<g clip-path="url(#clip0_562_2090)">
<path d="M14 28C21.732 28 28 21.732 28 14C28 6.26801 21.732 0 14 0C6.26801 0 0 6.26801 0 14C0 21.732 6.26801 28 14 28Z" fill="url(#paint0_linear_562_2090)"/>
<path d="M21.9266 10.2339C20.8621 11.093 19.3006 11.0336 18.3118 10.0448C17.323 9.05597 17.2581 7.49441 18.1226 6.42996L16.1991 4.50638L4.14966 16.5558L6.06243 18.4686C7.11608 17.4149 8.82893 17.4149 9.88798 18.4686C10.947 19.5222 10.9416 21.2351 9.88798 22.2941L11.8008 24.2069L23.8502 12.1575L21.9266 10.2339ZM14.2809 8.59669L15.5723 9.88808L14.3998 11.0606L13.1084 9.76921L14.2809 8.59669ZM15.4264 15.9074H13.4218V17.912H12.1142V15.9074H10.1095V14.5998H12.1142V12.5951H13.4218V14.5998H15.4264V15.9074ZM15.1994 11.8657L16.372 10.6932L17.6634 11.9846L16.4908 13.1571L15.1994 11.8657ZM18.5819 15.2482L17.2905 13.9568L18.4631 12.7843L19.7544 14.0757L18.5819 15.2482Z" fill="white"/>
</g>
<defs>
<linearGradient id="paint0_linear_562_2090" x1="0" y1="14" x2="28" y2="14" gradientUnits="userSpaceOnUse">
<stop stop-color="#000FEF"/>
<stop offset="0.9" stop-color="#FF00F6"/>
</linearGradient>
<clipPath id="clip0_562_2090">
<rect width="28" height="28" fill="white"/>
</clipPath>
</defs>
</svg>
